<svg width="56" height="56" viewBox="0 0 56 56" fill="none" xmlns="http://www.w3.org/2000/svg">
<path opacity="0.1" d="M40.6807 28C49.1413 28 56.3142 20.659 51.9127 13.4335C49.2394 9.04498 45.41 5.47678 40.844 3.11964C36.2779 0.762505 31.1513 -0.29266 26.0255 0.0697081C20.8997 0.432077 15.9724 2.198 11.7834 5.17408C7.59439 8.15016 4.30511 12.2216 2.27584 16.9425C0.246563 21.6635 -0.444448 26.8518 0.278485 31.9392C1.00142 37.0267 3.11041 41.8171 6.37449 45.7859C11.7488 52.3203 21.0416 47.9634 23.8263 39.9741L24.1721 38.982C26.4643 32.406 32.666 28 39.63 28H40.6807Z" fill="#005AAA"/>
<path d="M40 25.3335C40 34.6668 28 42.6668 28 42.6668C28 42.6668 16 34.6668 16 25.3335C16 22.1509 17.2643 19.0986 19.5147 16.8482C21.7652 14.5978 24.8174 13.3335 28 13.3335C31.1826 13.3335 34.2348 14.5978 36.4853 16.8482C38.7357 19.0986 40 22.1509 40 25.3335Z" fill="#005AAA"/>
<path d="M28 29.3335C30.2091 29.3335 32 27.5426 32 25.3335C32 23.1244 30.2091 21.3335 28 21.3335C25.7909 21.3335 24 23.1244 24 25.3335C24 27.5426 25.7909 29.3335 28 29.3335Z" stroke="#FFD66B" stroke-width="2" stroke-linecap="round" stroke-linejoin="round"/>
</svg>
