<svg width="56" height="56" viewBox="0 0 56 56" fill="none" xmlns="http://www.w3.org/2000/svg">
<path opacity="0.1" d="M40.7433 28C49.1693 28 56.3126 35.3072 51.9452 42.513C49.2928 46.8893 45.4918 50.455 40.9552 52.8227C36.4185 55.1903 31.3198 56.2695 26.2129 55.9429C21.106 55.6163 16.1863 53.8964 11.9883 50.9701C7.79024 48.0438 4.47443 44.0229 2.40111 39.3445C0.327781 34.666 -0.423767 29.5088 0.228117 24.4331C0.880002 19.3575 2.91039 14.5576 6.09868 10.5549C11.3484 3.96412 20.6758 8.13805 23.591 16.0437L24.0209 17.2093C26.4118 23.6932 32.5903 28 39.501 28H40.7433Z" fill="#005AAA"/>
<path d="M17.3334 17.3335H38.6667C40.1334 17.3335 41.3334 18.5335 41.3334 20.0002V36.0002C41.3334 37.4668 40.1334 38.6668 38.6667 38.6668H17.3334C15.8667 38.6668 14.6667 37.4668 14.6667 36.0002V20.0002C14.6667 18.5335 15.8667 17.3335 17.3334 17.3335Z" fill="#005AAA"/>
<path d="M41.3334 20L28 29.3333L14.6667 20" stroke="#FFD66B" stroke-width="2" stroke-linecap="round" stroke-linejoin="round"/>
</svg>
