<svg width="56" height="56" viewBox="0 0 56 56" fill="none" xmlns="http://www.w3.org/2000/svg">
<path opacity="0.1" d="M28 42.2557C28 49.8465 21.4954 56.2721 14.8009 52.6938V52.6938C10.74 50.5232 7.27704 47.3846 4.71885 43.556C2.16065 39.7274 0.586158 35.3269 0.134827 30.7445C-0.316504 26.162 0.369261 21.539 2.13138 17.2849C3.89349 13.0307 6.67757 9.27684 10.237 6.3557C13.7964 3.43455 18.0213 1.43632 22.5375 0.538009C27.0536 -0.360307 31.7216 -0.13098 36.128 1.20568V1.20568C43.3919 3.40917 43.4478 12.5522 38.0803 17.9197L33.799 22.201C30.086 25.914 28 30.95 28 36.201L28 42.2557Z" fill="#005AAA"/>
<path d="M41.3333 34.56V38.56C41.3348 38.9313 41.2588 39.2989 41.11 39.6391C40.9612 39.9793 40.7431 40.2847 40.4694 40.5358C40.1958 40.7868 39.8728 40.9779 39.521 41.0969C39.1692 41.2159 38.7965 41.2601 38.4267 41.2266C34.3238 40.7808 30.3827 39.3788 26.92 37.1333C23.6984 35.0862 20.9671 32.3549 18.92 29.1333C16.6666 25.6549 15.2643 21.6946 14.8267 17.5733C14.7933 17.2046 14.8372 16.833 14.9553 16.4821C15.0735 16.1313 15.2634 15.8089 15.513 15.5355C15.7626 15.262 16.0664 15.0436 16.4051 14.894C16.7437 14.7444 17.1098 14.667 17.48 14.6666H21.48C22.1271 14.6603 22.7544 14.8894 23.245 15.3113C23.7356 15.7333 24.0561 16.3192 24.1467 16.96C24.3155 18.2401 24.6286 19.4969 25.08 20.7066C25.2594 21.1839 25.2982 21.7025 25.1919 22.2011C25.0855 22.6998 24.8385 23.1574 24.48 23.52L22.7867 25.2133C24.6847 28.5514 27.4486 31.3152 30.7867 33.2133L32.48 31.52C32.8425 31.1615 33.3002 30.9144 33.7988 30.8081C34.2974 30.7017 34.8161 30.7406 35.2933 30.92C36.503 31.3714 37.7599 31.6845 39.04 31.8533C39.6877 31.9447 40.2792 32.2709 40.702 32.77C41.1249 33.269 41.3496 33.9061 41.3333 34.56Z" fill="#005AAA"/>
<path d="M32.0667 18.6668C33.369 18.9209 34.5658 19.5578 35.5041 20.4961C36.4423 21.4343 37.0792 22.6312 37.3333 23.9335M32.0667 13.3335C34.7724 13.6341 37.2955 14.8457 39.2217 16.7695C41.1478 18.6933 42.3627 21.2148 42.6667 23.9202" stroke="#FFD66B" stroke-width="2" stroke-linecap="round" stroke-linejoin="round"/>
</svg>
