<svg width="80" height="81" viewBox="0 0 80 81" fill="none" xmlns="http://www.w3.org/2000/svg">
<path d="M40 75.4925C58.5568 75.4925 73.6 60.4492 73.6 41.8925C73.6 23.3357 58.5568 8.29248 40 8.29248C21.4433 8.29248 6.40002 23.3357 6.40002 41.8925C6.40002 60.4492 21.4433 75.4925 40 75.4925Z" fill="#005AAA"/>
<path d="M40 65.8926C53.2548 65.8926 64 55.1474 64 41.8926C64 28.6377 53.2548 17.8926 40 17.8926C26.7452 17.8926 16 28.6377 16 41.8926C16 55.1474 26.7452 65.8926 40 65.8926Z" fill="#3D8AFF"/>
<path d="M48.4 52.6924L40 41.8924V27.4924" stroke="white" stroke-width="5" stroke-linecap="round" stroke-linejoin="round"/>
<path d="M36 14.6924H22.4" stroke="#FFD66B" stroke-width="2" stroke-linecap="round" stroke-linejoin="round"/>
<path d="M31.2 19.4924H11.2" stroke="#FFD66B" stroke-width="2" stroke-linecap="round" stroke-linejoin="round"/>
<path d="M28 24.2925H6.40002" stroke="#FFD66B" stroke-width="2" stroke-linecap="round" stroke-linejoin="round"/>
</svg>
