<svg width="80" height="81" viewBox="0 0 80 81" fill="none" xmlns="http://www.w3.org/2000/svg">
<path d="M64 16.2925H12C7.58172 16.2925 4 19.8742 4 24.2925V56.2925C4 60.7108 7.58172 64.2925 12 64.2925H64C68.4183 64.2925 72 60.7108 72 56.2925V24.2925C72 19.8742 68.4183 16.2925 64 16.2925Z" fill="#3D8AFF"/>
<path d="M72 24.2925H4V32.2925H72V24.2925Z" fill="#005AAA"/>
<path d="M24 48.5806H16C13.7909 48.5806 12 50.3714 12 52.5806C12 54.7897 13.7909 56.5806 16 56.5806H24C26.2091 56.5806 28 54.7897 28 52.5806C28 50.3714 26.2091 48.5806 24 48.5806Z" fill="#FFD66B"/>
<path d="M64 76.2925C70.6274 76.2925 76 70.9199 76 64.2925C76 57.6651 70.6274 52.2925 64 52.2925C57.3726 52.2925 52 57.6651 52 64.2925C52 70.9199 57.3726 76.2925 64 76.2925Z" fill="#FFD66B"/>
<path d="M60 64.2924L62.832 67.1245L68.488 61.4604" stroke="white" stroke-width="2" stroke-linecap="round" stroke-linejoin="round"/>
</svg>
