<svg width="49" height="48" viewBox="0 0 49 48" fill="none" xmlns="http://www.w3.org/2000/svg">
<rect x="0.500488" width="48" height="48" rx="15" fill="#E2001A" fill-opacity="0.1"/>
<path d="M31.7345 28.1712V30.4647C31.7354 30.6777 31.6917 30.8884 31.6062 31.0835C31.5207 31.2786 31.3954 31.4537 31.2382 31.5977C31.081 31.7416 30.8954 31.8512 30.6933 31.9194C30.4913 31.9876 30.2771 32.013 30.0647 31.9938C27.7076 31.7382 25.4435 30.9343 23.4542 29.6467C21.6034 28.4729 20.0343 26.9068 18.8583 25.0596C17.5637 23.0651 16.7581 20.7943 16.5067 18.4312C16.4876 18.2198 16.5127 18.0067 16.5806 17.8055C16.6485 17.6043 16.7576 17.4195 16.901 17.2627C17.0444 17.1059 17.2189 16.9807 17.4135 16.8949C17.608 16.8091 17.8183 16.7647 18.031 16.7645H20.329C20.7007 16.7609 21.0611 16.8923 21.343 17.1342C21.6248 17.3761 21.8089 17.7121 21.8609 18.0795C21.9579 18.8135 22.1378 19.5342 22.3971 20.2278C22.5002 20.5014 22.5225 20.7988 22.4614 21.0847C22.4003 21.3706 22.2584 21.6331 22.0524 21.8409L21.0796 22.8119C22.1701 24.7259 23.7579 26.3107 25.6756 27.399L26.6484 26.4281C26.8566 26.2225 27.1196 26.0809 27.406 26.0199C27.6925 25.9589 27.9904 25.9812 28.2646 26.084C28.9595 26.3429 29.6816 26.5224 30.417 26.6192C30.7891 26.6716 31.1289 26.8587 31.3718 27.1448C31.6148 27.431 31.7438 27.7962 31.7345 28.1712Z" fill="#E2001A"/>
<path d="M26.411 19.0581C27.1592 19.2038 27.8468 19.569 28.3858 20.107C28.9248 20.6449 29.2907 21.3312 29.4367 22.0779M26.411 16C27.9654 16.1724 29.4149 16.8671 30.5215 17.9702C31.6281 19.0733 32.326 20.5191 32.5006 22.0703" stroke="#E2001A" stroke-width="2" stroke-linecap="round" stroke-linejoin="round"/>
</svg>
