<svg width="80" height="80" viewBox="0 0 80 80" fill="none" xmlns="http://www.w3.org/2000/svg">
<path d="M12 12H44C46.1217 12 48.1566 12.8429 49.6569 14.3431C51.1571 15.8434 52 17.8783 52 20V60H12C9.87827 60 7.84344 59.1571 6.34315 57.6569C4.84285 56.1566 4 54.1217 4 52V20C4 17.8783 4.84285 15.8434 6.34315 14.3431C7.84344 12.8429 9.87827 12 12 12Z" fill="#3D8AFF"/>
<path d="M52 28H63.056C64.5413 28.0008 65.997 28.4151 67.2602 29.1964C68.5234 29.9778 69.5441 31.0954 70.208 32.424L75.152 42.312C75.7103 43.4213 76.0007 44.6461 76 45.888V52C76 54.1217 75.1571 56.1566 73.6568 57.6569C72.1566 59.1571 70.1217 60 68 60H52V28Z" fill="#005AAA"/>
<path d="M52 44H67.408C67.6803 43.9999 67.9481 43.9302 68.186 43.7976C68.4239 43.6651 68.624 43.474 68.7674 43.2425C68.9108 43.011 68.9927 42.7467 69.0054 42.4747C69.0181 42.2026 68.9612 41.9319 68.84 41.688L65.104 34.208C64.7715 33.5444 64.2609 32.9865 63.6294 32.5965C62.9978 32.2066 62.2702 32 61.528 32H52V44Z" fill="white"/>
<path d="M33.688 26.84L28.712 24.36C28.4908 24.2501 28.2471 24.1928 28 24.1928C27.7529 24.1928 27.5092 24.2501 27.288 24.36L22.312 26.84C22.0681 26.9612 21.7974 27.0181 21.5253 27.0054C21.2533 26.9927 20.989 26.9108 20.7575 26.7674C20.526 26.624 20.3349 26.4239 20.2024 26.186C20.0698 25.9481 20.0001 25.6803 20 25.408V12H36V25.408C35.9999 25.6803 35.9302 25.9481 35.7976 26.186C35.6651 26.4239 35.474 26.624 35.2425 26.7674C35.011 26.9108 34.7467 26.9927 34.4747 27.0054C34.2026 27.0181 33.9319 26.9612 33.688 26.84Z" fill="#FFD66B"/>
<path d="M64 68C68.4183 68 72 64.4183 72 60C72 55.5817 68.4183 52 64 52C59.5817 52 56 55.5817 56 60C56 64.4183 59.5817 68 64 68Z" fill="#FFD66B"/>
<path d="M64 62C65.1046 62 66 61.1046 66 60C66 58.8954 65.1046 58 64 58C62.8954 58 62 58.8954 62 60C62 61.1046 62.8954 62 64 62Z" fill="white"/>
<path d="M27.696 68C32.1143 68 35.696 64.4183 35.696 60C35.696 55.5817 32.1143 52 27.696 52C23.2777 52 19.696 55.5817 19.696 60C19.696 64.4183 23.2777 68 27.696 68Z" fill="#FFD66B"/>
<path d="M27.696 62C28.8006 62 29.696 61.1046 29.696 60C29.696 58.8954 28.8006 58 27.696 58C26.5914 58 25.696 58.8954 25.696 60C25.696 61.1046 26.5914 62 27.696 62Z" fill="white"/>
</svg>
