<svg width="80" height="80" viewBox="0 0 80 80" fill="none" xmlns="http://www.w3.org/2000/svg">
<path d="M69.6 39.5H52.9C51.3 39.5 50 40.8 50 42.4V75.6C50 77.2 51.3 78.5 52.9 78.5H69.7C71.3 78.5 72.6 77.2 72.6 75.6V42.4C72.5 40.8 71.2 39.5 69.6 39.5Z" fill="#3D8AFF"/>
<path d="M72.5 46.2H50V68.7H72.5V46.2Z" fill="#3D8AFF"/>
<path d="M69.6 37.9H52.9C50.4 37.9 48.5 39.9 48.5 42.3V46.2V68.7V75.5C48.5 78 50.5 79.9 52.9 79.9H69.7C72.2 79.9 74.1 77.9 74.1 75.5V68.7V46.2V42.3C74.1 39.9 72.1 37.9 69.6 37.9ZM52.9 41.1H69.7C70.4 41.1 71 41.7 71 42.4V44.7H51.6V42.4C51.6 41.6 52.1 41.1 52.9 41.1ZM70.9 67.2H51.6V47.8H71V67.2H70.9ZM69.6 76.8H52.9C52.2 76.8 51.6 76.2 51.6 75.5V70.3H71V75.5C70.9 76.3 70.4 76.8 69.6 76.8Z" fill="#005AAA"/>
<path d="M61.6 72H60.4C59.5 72 58.8 72.7 58.8 73.6C58.8 74.5 59.5 75.2 60.4 75.2H61.6C62.5 75.2 63.2 74.5 63.2 73.6C63.2 72.7 62.5 72 61.6 72Z" fill="#005AAA"/>
<path d="M38.9 73.3C24.2 73.3 11.8 62.8 9.50001 48.3C9.40001 47.4 8.50001 46.9 7.70001 47C6.80001 47.1 6.30001 48 6.40001 48.8C7.70001 56.4 11.6 63.4 17.5 68.5C23.5 73.6 31.1 76.4 39 76.4C39.9 76.4 40.6 75.7 40.6 74.8C40.6 73.9 39.8 73.3 38.9 73.3Z" fill="#005AAA"/>
<path d="M36.2 9.19998C50.9 9.19998 63.3 19.7 65.6 34.2C65.7 35.1 66.6 35.6 67.4 35.5C68.3 35.4 68.8 34.5 68.7 33.7C67.5 26 63.6 19.1 57.7 14C51.7 8.89998 44.1 6.09998 36.2 6.09998C35.3 6.09998 34.6 6.79998 34.6 7.69998C34.6 8.59998 35.3 9.19998 36.2 9.19998Z" fill="#005AAA"/>
<path d="M27.5 1.59998H10.7C9.10005 1.59998 7.80005 2.89998 7.80005 4.49998V37.7C7.80005 39.3 9.10005 40.6 10.7 40.6H27.5C29.1 40.6 30.4 39.3 30.4 37.7V4.39998C30.3 2.89998 29 1.59998 27.5 1.59998Z" fill="#3D8AFF"/>
<path d="M30.3 8.29999H7.80005V30.8H30.3V8.29999Z" fill="#FFD66B"/>
<path d="M27.1 0H10.4C7.90002 0 5.90002 2 5.90002 4.4V8.3V30.8V37.6C5.90002 40.1 7.90002 42 10.3 42H27.1C29.6 42 31.5 40 31.5 37.6V30.8V8.3V4.4C31.6 2 29.6 0 27.1 0ZM10.4 3.2H27.2C27.9 3.2 28.5 3.8 28.5 4.5V6.8H9.10002V4.4C9.10002 3.7 9.60002 3.2 10.4 3.2ZM28.4 29.2H9.10002V9.9H28.5L28.4 29.2ZM27.1 38.9H10.4C9.70002 38.9 9.10002 38.3 9.10002 37.6V32.4H28.5V37.6C28.4 38.4 27.9 38.9 27.1 38.9Z" fill="#005AAA"/>
<path d="M19.9 34H18.7C17.8 34 17.1 34.7 17.1 35.6C17.1 36.5 17.8 37.2 18.7 37.2H19.9C20.8 37.2 21.5 36.5 21.5 35.6C21.5 34.7 20.8 34 19.9 34Z" fill="#FFD66B"/>
</svg>
