<svg width="80" height="81" viewBox="0 0 80 81" fill="none" xmlns="http://www.w3.org/2000/svg">
<path d="M40 72.2924C32.2318 71.1903 25.1223 67.3214 19.9782 61.3969C14.8342 55.4725 12.0012 47.8905 12 40.0444V28.9324C11.9972 27.5254 12.3656 26.1426 13.0679 24.9234C13.7701 23.7043 14.7815 22.6919 16 21.9884L36 10.5644C37.2085 9.87408 38.5762 9.51099 39.968 9.51099C41.3598 9.51099 42.7275 9.87408 43.936 10.5644L64 21.9884C65.2185 22.6919 66.2299 23.7043 66.9322 24.9234C67.6345 26.1426 68.0028 27.5254 68 28.9324V40.0364C68.0024 47.8843 65.1709 55.4691 60.0264 61.3956C54.8819 67.3221 47.7703 71.1917 40 72.2924Z" fill="#005AAA"/>
<path d="M37.8 9.82056C37.1822 9.99448 36.5883 10.2444 36.032 10.5646L16 21.9886C14.7815 22.692 13.7701 23.7044 13.0679 24.9236C12.3656 26.1428 11.9972 27.5256 12 28.9326V40.0446C12 40.1326 12 40.2126 12 40.3006C16.0811 43.354 21.174 44.734 26.2383 44.1588C31.3027 43.5837 35.9564 41.0966 39.2488 37.2058C42.5412 33.315 44.2239 28.3139 43.9531 23.2242C43.6824 18.1345 41.4786 13.3401 37.792 9.82056H37.8Z" fill="#FFD66B"/>
<path d="M40 63.2765C34.4601 62.4898 29.3891 59.7334 25.716 55.5123C22.0429 51.2912 20.0137 45.888 20 40.2925V30.9325C20.0006 30.3457 20.1563 29.7696 20.4513 29.2624C20.7464 28.7552 21.1702 28.335 21.68 28.0445L38.344 18.5165C38.8488 18.2297 39.4194 18.0789 40 18.0789C40.5806 18.0789 41.1512 18.2297 41.656 18.5165L58.32 28.0445C58.8298 28.335 59.2536 28.7552 59.5487 29.2624C59.8437 29.7696 59.9994 30.3457 60 30.9325V40.2445C59.9995 45.8487 57.9761 51.2644 54.3016 55.4958C50.6272 59.7273 45.5488 62.4902 40 63.2765Z" fill="#3D8AFF"/>
<path d="M32 40.2924L37.336 45.8924L48 34.6924" stroke="white" stroke-width="5" stroke-linecap="round" stroke-linejoin="round"/>
<path d="M60 56.2925C59.1381 56.2964 58.3006 56.5786 57.6121 57.0971C56.9236 57.6156 56.4209 58.3426 56.1791 59.1699C55.9372 59.9971 55.969 60.8804 56.2697 61.6881C56.5704 62.4959 57.124 63.1848 57.848 63.6525C59.7695 61.827 61.462 59.7746 62.888 57.5405C62.516 57.148 62.0683 56.8351 61.5719 56.6206C61.0755 56.4061 60.5408 56.2945 60 56.2925Z" fill="#FFD66B"/>
</svg>
